<mxfile host="65bd71144e">
    <diagram id="3ciIGtcFt_t5HZg3-FSJ" name="architecture">
        <mxGraphModel dx="997" dy="921" grid="1" gridSize="10" guides="1" tooltips="1" connect="1" arrows="1" fold="1" page="1" pageScale="1" pageWidth="2336" pageHeight="1654" math="0" shadow="0">
            <root>
                <mxCell id="0"/>
                <mxCell id="1" parent="0"/>
                <mxCell id="16" style="edgeStyle=none;html=1;entryX=0;entryY=0.5;entryDx=0;entryDy=0;" parent="1" source="2" target="7" edge="1">
                    <mxGeometry relative="1" as="geometry"/>
                </mxCell>
                <mxCell id="17" style="edgeStyle=none;html=1;entryX=0;entryY=0.5;entryDx=0;entryDy=0;" parent="1" source="2" target="9" edge="1">
                    <mxGeometry relative="1" as="geometry"/>
                </mxCell>
                <mxCell id="2" value="Apollo&lt;br&gt;Server" style="ellipse;whiteSpace=wrap;html=1;aspect=fixed;" parent="1" vertex="1">
                    <mxGeometry x="350" y="125" width="80" height="80" as="geometry"/>
                </mxCell>
                <mxCell id="10" style="edgeStyle=none;html=1;" parent="1" source="4" edge="1">
                    <mxGeometry relative="1" as="geometry">
                        <mxPoint x="390" y="215" as="targetPoint"/>
                    </mxGeometry>
                </mxCell>
                <mxCell id="4" value="Client" style="aspect=fixed;perimeter=ellipsePerimeter;html=1;align=center;shadow=0;dashed=0;spacingTop=3;image;image=img/lib/active_directory/mac_client.svg;fontFamily=Helvetica;fontSize=12;fontColor=#232F3E;strokeColor=#232F3E;fillColor=#ffffff;sketch=0;" parent="1" vertex="1">
                    <mxGeometry x="360" y="267" width="60" height="60" as="geometry"/>
                </mxCell>
                <mxCell id="6" value="Event bus" style="shape=cylinder3;whiteSpace=wrap;html=1;boundedLbl=1;backgroundOutline=1;size=7;rotation=0;horizontal=0;" parent="1" vertex="1">
                    <mxGeometry x="705" y="50" width="30" height="220" as="geometry"/>
                </mxCell>
                <mxCell id="15" style="edgeStyle=none;html=1;" parent="1" source="7" edge="1">
                    <mxGeometry relative="1" as="geometry">
                        <mxPoint x="700" y="129" as="targetPoint"/>
                    </mxGeometry>
                </mxCell>
                <mxCell id="7" value="Payment service" style="rounded=1;whiteSpace=wrap;html=1;" parent="1" vertex="1">
                    <mxGeometry x="550" y="104" width="110" height="50" as="geometry"/>
                </mxCell>
                <mxCell id="14" style="edgeStyle=none;html=1;" parent="1" source="8" edge="1">
                    <mxGeometry relative="1" as="geometry">
                        <mxPoint x="740" y="180" as="targetPoint"/>
                    </mxGeometry>
                </mxCell>
                <mxCell id="8" value="Fulfilment service" style="rounded=1;whiteSpace=wrap;html=1;" parent="1" vertex="1">
                    <mxGeometry x="780" y="155" width="110" height="50" as="geometry"/>
                </mxCell>
                <mxCell id="12" style="edgeStyle=none;html=1;" parent="1" source="9" edge="1">
                    <mxGeometry relative="1" as="geometry">
                        <mxPoint x="700" y="215" as="targetPoint"/>
                    </mxGeometry>
                </mxCell>
                <mxCell id="9" value="Order service" style="rounded=1;whiteSpace=wrap;html=1;" parent="1" vertex="1">
                    <mxGeometry x="550" y="190" width="110" height="50" as="geometry"/>
                </mxCell>
                <mxCell id="77" value="sync" style="edgeStyle=orthogonalEdgeStyle;html=1;entryX=0.5;entryY=1;entryDx=0;entryDy=0;" parent="1" source="20" target="49" edge="1">
                    <mxGeometry relative="1" as="geometry">
                        <Array as="points">
                            <mxPoint x="420" y="840"/>
                            <mxPoint x="628" y="840"/>
                        </Array>
                    </mxGeometry>
                </mxCell>
                <mxCell id="78" value="sync" style="edgeStyle=orthogonalEdgeStyle;html=1;entryX=0.5;entryY=1;entryDx=0;entryDy=0;" parent="1" source="20" target="51" edge="1">
                    <mxGeometry x="-0.2849" relative="1" as="geometry">
                        <Array as="points">
                            <mxPoint x="420" y="870"/>
                            <mxPoint x="768" y="870"/>
                        </Array>
                        <mxPoint as="offset"/>
                    </mxGeometry>
                </mxCell>
                <mxCell id="20" value="API&lt;br&gt;Server" style="ellipse;whiteSpace=wrap;html=1;aspect=fixed;" parent="1" vertex="1">
                    <mxGeometry x="380" y="750" width="80" height="80" as="geometry"/>
                </mxCell>
                <mxCell id="70" style="edgeStyle=none;html=1;" parent="1" edge="1">
                    <mxGeometry relative="1" as="geometry">
                        <mxPoint x="380" y="790" as="targetPoint"/>
                        <mxPoint x="300" y="790" as="sourcePoint"/>
                    </mxGeometry>
                </mxCell>
                <mxCell id="35" value="events" style="edgeStyle=orthogonalEdgeStyle;html=1;entryX=0.5;entryY=0;entryDx=0;entryDy=0;entryPerimeter=0;startArrow=none;startFill=0;endArrow=classic;endFill=1;" parent="1" source="25" edge="1">
                    <mxGeometry relative="1" as="geometry">
                        <Array as="points">
                            <mxPoint x="617.5" y="640"/>
                            <mxPoint x="1060.5" y="640"/>
                        </Array>
                        <mxPoint x="1060" y="725" as="targetPoint"/>
                    </mxGeometry>
                </mxCell>
                <mxCell id="37" value="events" style="edgeStyle=orthogonalEdgeStyle;html=1;entryX=0.5;entryY=0;entryDx=0;entryDy=0;entryPerimeter=0;startArrow=none;startFill=0;endArrow=classic;endFill=1;" parent="1" source="27" edge="1">
                    <mxGeometry relative="1" as="geometry">
                        <Array as="points">
                            <mxPoint x="897.5" y="700"/>
                            <mxPoint x="1060.5" y="700"/>
                        </Array>
                        <mxPoint x="1060" y="725" as="targetPoint"/>
                    </mxGeometry>
                </mxCell>
                <mxCell id="36" value="events" style="edgeStyle=orthogonalEdgeStyle;html=1;entryX=0.5;entryY=0;entryDx=0;entryDy=0;entryPerimeter=0;startArrow=none;startFill=0;endArrow=classic;endFill=1;" parent="1" source="29" edge="1">
                    <mxGeometry relative="1" as="geometry">
                        <Array as="points">
                            <mxPoint x="757.5" y="670"/>
                            <mxPoint x="1060.5" y="670"/>
                        </Array>
                        <mxPoint x="1060" y="725" as="targetPoint"/>
                    </mxGeometry>
                </mxCell>
                <mxCell id="53" value="subscribe" style="edgeStyle=orthogonalEdgeStyle;html=1;startArrow=classic;startFill=1;endArrow=none;endFill=0;" parent="1" edge="1" target="99">
                    <mxGeometry x="-0.4818" relative="1" as="geometry">
                        <Array as="points">
                            <mxPoint x="1060" y="921"/>
                        </Array>
                        <mxPoint x="1060" y="810" as="sourcePoint"/>
                        <mxPoint x="950" y="921" as="targetPoint"/>
                        <mxPoint as="offset"/>
                    </mxGeometry>
                </mxCell>
                <mxCell id="54" value="" style="edgeStyle=orthogonalEdgeStyle;html=1;endArrow=none;endFill=0;" parent="1" target="100" edge="1">
                    <mxGeometry relative="1" as="geometry">
                        <Array as="points">
                            <mxPoint x="1060" y="980"/>
                            <mxPoint x="766" y="980"/>
                        </Array>
                        <mxPoint x="1060" y="810" as="sourcePoint"/>
                        <mxPoint x="757.5" y="954.0000000000002" as="targetPoint"/>
                    </mxGeometry>
                </mxCell>
                <mxCell id="58" style="edgeStyle=orthogonalEdgeStyle;html=1;endArrow=none;endFill=0;" parent="1" target="98" edge="1">
                    <mxGeometry relative="1" as="geometry">
                        <Array as="points">
                            <mxPoint x="1060" y="1020"/>
                            <mxPoint x="626" y="1020"/>
                        </Array>
                        <mxPoint x="1060" y="810" as="sourcePoint"/>
                        <mxPoint x="618" y="970" as="targetPoint"/>
                    </mxGeometry>
                </mxCell>
                <mxCell id="74" style="edgeStyle=orthogonalEdgeStyle;html=1;entryX=0.5;entryY=1;entryDx=0;entryDy=0;endArrow=none;endFill=0;" parent="1" target="73" edge="1">
                    <mxGeometry relative="1" as="geometry">
                        <Array as="points">
                            <mxPoint x="1060" y="1050"/>
                            <mxPoint x="420" y="1050"/>
                        </Array>
                        <mxPoint x="1060" y="820" as="sourcePoint"/>
                    </mxGeometry>
                </mxCell>
                <mxCell id="56" style="edgeStyle=orthogonalEdgeStyle;html=1;" parent="1" source="100" edge="1">
                    <mxGeometry relative="1" as="geometry">
                        <mxPoint x="765.84" y="790" as="targetPoint"/>
                        <mxPoint x="765.84" y="884.0000000000002" as="sourcePoint"/>
                        <Array as="points">
                            <mxPoint x="766" y="820"/>
                        </Array>
                    </mxGeometry>
                </mxCell>
                <mxCell id="57" style="edgeStyle=orthogonalEdgeStyle;html=1;" parent="1" source="98" edge="1">
                    <mxGeometry relative="1" as="geometry">
                        <mxPoint x="627.08" y="790" as="targetPoint"/>
                        <mxPoint x="627.08" y="880.9999999999998" as="sourcePoint"/>
                    </mxGeometry>
                </mxCell>
                <mxCell id="55" style="edgeStyle=orthogonalEdgeStyle;html=1;" parent="1" edge="1" source="99">
                    <mxGeometry relative="1" as="geometry">
                        <mxPoint x="905.84" y="790" as="targetPoint"/>
                        <mxPoint x="906" y="890" as="sourcePoint"/>
                        <Array as="points">
                            <mxPoint x="906" y="850"/>
                        </Array>
                    </mxGeometry>
                </mxCell>
                <mxCell id="88" style="edgeStyle=orthogonalEdgeStyle;html=1;entryX=0.25;entryY=0;entryDx=0;entryDy=0;" parent="1" source="44" target="25" edge="1">
                    <mxGeometry relative="1" as="geometry"/>
                </mxCell>
                <mxCell id="44" value="" style="shape=image;verticalLabelPosition=bottom;labelBackgroundColor=#ffffff;verticalAlign=top;aspect=fixed;imageAspect=0;image=https://cdn-icons-png.flaticon.com/512/5968/5968312.png;" parent="1" vertex="1">
                    <mxGeometry x="410" y="610" width="64" height="64" as="geometry"/>
                </mxCell>
                <mxCell id="60" value="Payment&lt;br&gt;Module" style="rounded=0;whiteSpace=wrap;html=1;" parent="1" vertex="1">
                    <mxGeometry x="290" y="1320" width="120" height="130" as="geometry"/>
                </mxCell>
                <mxCell id="61" value="Fulfilment&lt;br&gt;Module" style="rounded=0;whiteSpace=wrap;html=1;" parent="1" vertex="1">
                    <mxGeometry x="530" y="1320" width="120" height="130" as="geometry"/>
                </mxCell>
                <mxCell id="5uRHVm7JKF-94XOrm5FZ-100" style="edgeStyle=none;html=1;entryX=0.5;entryY=0;entryDx=0;entryDy=0;entryPerimeter=0;startArrow=none;startFill=0;endArrow=none;endFill=0;" edge="1" parent="1" source="62" target="65">
                    <mxGeometry relative="1" as="geometry"/>
                </mxCell>
                <mxCell id="62" value="Order&lt;br&gt;Module" style="rounded=0;whiteSpace=wrap;html=1;" parent="1" vertex="1">
                    <mxGeometry x="410" y="1320" width="120" height="130" as="geometry"/>
                </mxCell>
                <mxCell id="65" value="DB" style="shape=cylinder3;whiteSpace=wrap;html=1;boundedLbl=1;backgroundOutline=1;size=15;" parent="1" vertex="1">
                    <mxGeometry x="400" y="1510" width="140" height="80" as="geometry"/>
                </mxCell>
                <mxCell id="66" value="API" style="rounded=0;whiteSpace=wrap;html=1;" parent="1" vertex="1">
                    <mxGeometry x="290" y="1260" width="360" height="60" as="geometry"/>
                </mxCell>
                <mxCell id="68" style="edgeStyle=orthogonalEdgeStyle;html=1;" parent="1" source="67" edge="1">
                    <mxGeometry relative="1" as="geometry">
                        <mxPoint x="280" y="1290" as="targetPoint"/>
                    </mxGeometry>
                </mxCell>
                <mxCell id="67" value="Client" style="aspect=fixed;perimeter=ellipsePerimeter;html=1;align=center;shadow=0;dashed=0;spacingTop=3;image;image=img/lib/active_directory/mac_client.svg;fontFamily=Helvetica;fontSize=12;fontColor=#232F3E;strokeColor=#232F3E;fillColor=#ffffff;sketch=0;" parent="1" vertex="1">
                    <mxGeometry x="110" y="1260" width="60" height="60" as="geometry"/>
                </mxCell>
                <mxCell id="75" style="edgeStyle=orthogonalEdgeStyle;html=1;entryX=0.5;entryY=1;entryDx=0;entryDy=0;" parent="1" source="73" target="20" edge="1">
                    <mxGeometry relative="1" as="geometry">
                        <mxPoint x="420" y="895" as="targetPoint"/>
                    </mxGeometry>
                </mxCell>
                <mxCell id="84" value="" style="group" parent="1" vertex="1" connectable="0">
                    <mxGeometry x="359.75" y="940" width="134.75" height="60" as="geometry"/>
                </mxCell>
                <mxCell id="73" value="Notifier" style="rounded=1;whiteSpace=wrap;html=1;arcSize=11;" parent="84" vertex="1">
                    <mxGeometry y="10" width="120.5" height="50" as="geometry"/>
                </mxCell>
                <mxCell id="83" value="" style="outlineConnect=0;dashed=0;verticalLabelPosition=bottom;verticalAlign=top;align=center;html=1;shape=mxgraph.aws3.lambda_function;fillColor=#F58534;gradientColor=none;" parent="84" vertex="1">
                    <mxGeometry x="104.75" width="30" height="30" as="geometry"/>
                </mxCell>
                <mxCell id="85" value="" style="group" parent="1" vertex="1" connectable="0">
                    <mxGeometry x="562.5" y="725" width="130" height="65" as="geometry"/>
                </mxCell>
                <mxCell id="25" value="Payment service" style="rounded=1;whiteSpace=wrap;html=1;" parent="85" vertex="1">
                    <mxGeometry y="5" width="110" height="50" as="geometry"/>
                </mxCell>
                <mxCell id="49" value="Payment service" style="rounded=1;whiteSpace=wrap;html=1;" parent="85" vertex="1">
                    <mxGeometry x="10" y="15" width="110" height="50" as="geometry"/>
                </mxCell>
                <mxCell id="82" value="" style="outlineConnect=0;dashed=0;verticalLabelPosition=bottom;verticalAlign=top;align=center;html=1;shape=mxgraph.aws3.lambda_function;fillColor=#F58534;gradientColor=none;" parent="85" vertex="1">
                    <mxGeometry x="100" width="30" height="30" as="geometry"/>
                </mxCell>
                <mxCell id="86" value="" style="group" parent="1" vertex="1" connectable="0">
                    <mxGeometry x="702.5" y="725" width="127.5" height="85" as="geometry"/>
                </mxCell>
                <mxCell id="29" value="Order service" style="rounded=1;whiteSpace=wrap;html=1;" parent="86" vertex="1">
                    <mxGeometry y="5" width="110" height="50" as="geometry"/>
                </mxCell>
                <mxCell id="51" value="Order service" style="rounded=1;whiteSpace=wrap;html=1;" parent="86" vertex="1">
                    <mxGeometry x="10" y="15" width="110" height="50" as="geometry"/>
                </mxCell>
                <mxCell id="81" value="" style="outlineConnect=0;dashed=0;verticalLabelPosition=bottom;verticalAlign=top;align=center;html=1;shape=mxgraph.aws3.lambda_function;fillColor=#F58534;gradientColor=none;" parent="86" vertex="1">
                    <mxGeometry x="97.5" width="30" height="30" as="geometry"/>
                </mxCell>
                <mxCell id="P_9LEspwSx96l7he3bQw-108" value="" style="sketch=0;points=[[0,0,0],[0.25,0,0],[0.5,0,0],[0.75,0,0],[1,0,0],[0,1,0],[0.25,1,0],[0.5,1,0],[0.75,1,0],[1,1,0],[0,0.25,0],[0,0.5,0],[0,0.75,0],[1,0.25,0],[1,0.5,0],[1,0.75,0]];outlineConnect=0;fontColor=#232F3E;gradientColor=#4D72F3;gradientDirection=north;fillColor=#3334B9;strokeColor=#ffffff;dashed=0;verticalLabelPosition=bottom;verticalAlign=top;align=center;html=1;fontSize=12;fontStyle=0;aspect=fixed;shape=mxgraph.aws4.resourceIcon;resIcon=mxgraph.aws4.dynamodb;" vertex="1" parent="86">
                    <mxGeometry x="97.5" y="55" width="30" height="30" as="geometry"/>
                </mxCell>
                <mxCell id="87" value="" style="group" parent="1" vertex="1" connectable="0">
                    <mxGeometry x="842.5" y="725" width="127.5" height="65" as="geometry"/>
                </mxCell>
                <mxCell id="27" value="Fulfilment service" style="rounded=1;whiteSpace=wrap;html=1;" parent="87" vertex="1">
                    <mxGeometry y="5" width="110" height="50" as="geometry"/>
                </mxCell>
                <mxCell id="52" value="Fulfilment service" style="rounded=1;whiteSpace=wrap;html=1;" parent="87" vertex="1">
                    <mxGeometry x="10" y="15" width="110" height="50" as="geometry"/>
                </mxCell>
                <mxCell id="80" value="" style="outlineConnect=0;dashed=0;verticalLabelPosition=bottom;verticalAlign=top;align=center;html=1;shape=mxgraph.aws3.lambda_function;fillColor=#F58534;gradientColor=none;" parent="87" vertex="1">
                    <mxGeometry x="97.5" width="30" height="30" as="geometry"/>
                </mxCell>
                <mxCell id="93" value="" style="sketch=0;points=[[0,0,0],[0.25,0,0],[0.5,0,0],[0.75,0,0],[1,0,0],[0,1,0],[0.25,1,0],[0.5,1,0],[0.75,1,0],[1,1,0],[0,0.25,0],[0,0.5,0],[0,0.75,0],[1,0.25,0],[1,0.5,0],[1,0.75,0]];outlineConnect=0;fontColor=#232F3E;gradientColor=#F78E04;gradientDirection=north;fillColor=#D05C17;strokeColor=#ffffff;dashed=0;verticalLabelPosition=bottom;verticalAlign=top;align=center;html=1;fontSize=12;fontStyle=0;aspect=fixed;shape=mxgraph.aws4.resourceIcon;resIcon=mxgraph.aws4.ec2;" parent="1" vertex="1">
                    <mxGeometry x="430" y="712" width="48" height="48" as="geometry"/>
                </mxCell>
                <mxCell id="95" value="Frontend" style="sketch=0;outlineConnect=0;fontColor=#232F3E;gradientColor=none;fillColor=#3F8624;strokeColor=none;dashed=0;verticalLabelPosition=bottom;verticalAlign=top;align=center;html=1;fontSize=12;fontStyle=0;aspect=fixed;pointerEvents=1;shape=mxgraph.aws4.bucket;" parent="1" vertex="1">
                    <mxGeometry x="250" y="765" width="48.08" height="50" as="geometry"/>
                </mxCell>
                <mxCell id="97" style="edgeStyle=none;html=1;" parent="1" source="96" target="95" edge="1">
                    <mxGeometry relative="1" as="geometry"/>
                </mxCell>
                <mxCell id="96" value="Client" style="aspect=fixed;perimeter=ellipsePerimeter;html=1;align=center;shadow=0;dashed=0;spacingTop=3;image;image=img/lib/active_directory/mac_client.svg;fontFamily=Helvetica;fontSize=12;fontColor=#232F3E;strokeColor=#232F3E;fillColor=#ffffff;sketch=0;" parent="1" vertex="1">
                    <mxGeometry x="110" y="760" width="60" height="60" as="geometry"/>
                </mxCell>
                <mxCell id="98" value="SQS" style="sketch=0;outlineConnect=0;fontColor=#232F3E;gradientColor=none;fillColor=#B0084D;strokeColor=none;dashed=0;verticalLabelPosition=bottom;verticalAlign=top;align=center;html=1;fontSize=12;fontStyle=0;aspect=fixed;pointerEvents=1;shape=mxgraph.aws4.queue;" parent="1" vertex="1">
                    <mxGeometry x="593" y="900" width="66.39" height="40" as="geometry"/>
                </mxCell>
                <mxCell id="99" value="SQS" style="sketch=0;outlineConnect=0;fontColor=#232F3E;gradientColor=none;fillColor=#B0084D;strokeColor=none;dashed=0;verticalLabelPosition=bottom;verticalAlign=top;align=center;html=1;fontSize=12;fontStyle=0;aspect=fixed;pointerEvents=1;shape=mxgraph.aws4.queue;" parent="1" vertex="1">
                    <mxGeometry x="873.06" y="900" width="66.39" height="40" as="geometry"/>
                </mxCell>
                <mxCell id="100" value="SQS" style="sketch=0;outlineConnect=0;fontColor=#232F3E;gradientColor=none;fillColor=#B0084D;strokeColor=none;dashed=0;verticalLabelPosition=bottom;verticalAlign=top;align=center;html=1;fontSize=12;fontStyle=0;aspect=fixed;pointerEvents=1;shape=mxgraph.aws4.queue;" parent="1" vertex="1">
                    <mxGeometry x="733.06" y="900" width="66.39" height="40" as="geometry"/>
                </mxCell>
                <mxCell id="P_9LEspwSx96l7he3bQw-106" value="SNS" style="sketch=0;points=[[0,0,0],[0.25,0,0],[0.5,0,0],[0.75,0,0],[1,0,0],[0,1,0],[0.25,1,0],[0.5,1,0],[0.75,1,0],[1,1,0],[0,0.25,0],[0,0.5,0],[0,0.75,0],[1,0.25,0],[1,0.5,0],[1,0.75,0]];outlineConnect=0;fontColor=#232F3E;gradientColor=#FF4F8B;gradientDirection=north;fillColor=#BC1356;strokeColor=#ffffff;dashed=0;verticalLabelPosition=bottom;verticalAlign=top;align=center;html=1;fontSize=12;fontStyle=0;aspect=fixed;shape=mxgraph.aws4.resourceIcon;resIcon=mxgraph.aws4.sns;" vertex="1" parent="1">
                    <mxGeometry x="1031" y="726" width="55" height="55" as="geometry"/>
                </mxCell>
                <mxCell id="P_9LEspwSx96l7he3bQw-107" value="" style="sketch=0;points=[[0,0,0],[0.25,0,0],[0.5,0,0],[0.75,0,0],[1,0,0],[0,1,0],[0.25,1,0],[0.5,1,0],[0.75,1,0],[1,1,0],[0,0.25,0],[0,0.5,0],[0,0.75,0],[1,0.25,0],[1,0.5,0],[1,0.75,0]];outlineConnect=0;fontColor=#232F3E;gradientColor=#4D72F3;gradientDirection=north;fillColor=#3334B9;strokeColor=#ffffff;dashed=0;verticalLabelPosition=bottom;verticalAlign=top;align=center;html=1;fontSize=12;fontStyle=0;aspect=fixed;shape=mxgraph.aws4.resourceIcon;resIcon=mxgraph.aws4.dynamodb;" vertex="1" parent="1">
                    <mxGeometry x="659.39" y="780" width="30" height="30" as="geometry"/>
                </mxCell>
                <mxCell id="P_9LEspwSx96l7he3bQw-109" value="" style="sketch=0;points=[[0,0,0],[0.25,0,0],[0.5,0,0],[0.75,0,0],[1,0,0],[0,1,0],[0.25,1,0],[0.5,1,0],[0.75,1,0],[1,1,0],[0,0.25,0],[0,0.5,0],[0,0.75,0],[1,0.25,0],[1,0.5,0],[1,0.75,0]];outlineConnect=0;fontColor=#232F3E;gradientColor=#4D72F3;gradientDirection=north;fillColor=#3334B9;strokeColor=#ffffff;dashed=0;verticalLabelPosition=bottom;verticalAlign=top;align=center;html=1;fontSize=12;fontStyle=0;aspect=fixed;shape=mxgraph.aws4.resourceIcon;resIcon=mxgraph.aws4.dynamodb;" vertex="1" parent="1">
                    <mxGeometry x="940" y="780" width="30" height="30" as="geometry"/>
                </mxCell>
                <mxCell id="5uRHVm7JKF-94XOrm5FZ-101" value="Modular Monolith" style="text;html=1;strokeColor=none;fillColor=none;align=center;verticalAlign=middle;whiteSpace=wrap;rounded=0;fontStyle=1;fontSize=14;" vertex="1" parent="1">
                    <mxGeometry x="419.72" y="1210" width="100.55" height="40" as="geometry"/>
                </mxCell>
                <mxCell id="5uRHVm7JKF-94XOrm5FZ-102" value="Modern Architecture with Combination of API and Event Driven Communication Styles" style="text;html=1;strokeColor=none;fillColor=none;align=center;verticalAlign=middle;whiteSpace=wrap;rounded=0;fontStyle=1;fontSize=14;" vertex="1" parent="1">
                    <mxGeometry x="429.86" y="540" width="320.28" height="40" as="geometry"/>
                </mxCell>
            </root>
        </mxGraphModel>
    </diagram>
    <diagram id="usp5NnlR_lSvHXNA_p3T" name="events">
        <mxGraphModel dx="1484" dy="921" grid="1" gridSize="10" guides="1" tooltips="1" connect="1" arrows="1" fold="1" page="1" pageScale="1" pageWidth="2336" pageHeight="1654" math="0" shadow="0">
            <root>
                <mxCell id="USkfGyFfCSIdRW2pAjEp-0"/>
                <mxCell id="USkfGyFfCSIdRW2pAjEp-1" parent="USkfGyFfCSIdRW2pAjEp-0"/>
                <mxCell id="USkfGyFfCSIdRW2pAjEp-21" value="Acts on:&lt;br&gt;&lt;ul&gt;&lt;li&gt;Payment Successful&lt;/li&gt;&lt;li&gt;Payment Failed&lt;/li&gt;&lt;li&gt;Fulfilment Complete&lt;/li&gt;&lt;li&gt;Fulfilment Failed&lt;/li&gt;&lt;/ul&gt;" style="rounded=0;whiteSpace=wrap;html=1;fillColor=none;align=left;verticalAlign=bottom;" parent="USkfGyFfCSIdRW2pAjEp-1" vertex="1">
                    <mxGeometry x="95" y="50" width="290" height="560" as="geometry"/>
                </mxCell>
                <mxCell id="USkfGyFfCSIdRW2pAjEp-14" style="edgeStyle=none;html=1;entryX=0.75;entryY=0.069;entryDx=0;entryDy=0;entryPerimeter=0;startArrow=none;startFill=0;endArrow=classic;endFill=1;" parent="USkfGyFfCSIdRW2pAjEp-1" source="USkfGyFfCSIdRW2pAjEp-2" target="USkfGyFfCSIdRW2pAjEp-4" edge="1">
                    <mxGeometry relative="1" as="geometry"/>
                </mxCell>
                <mxCell id="USkfGyFfCSIdRW2pAjEp-15" style="edgeStyle=none;html=1;entryX=0.3;entryY=0.031;entryDx=0;entryDy=0;entryPerimeter=0;startArrow=none;startFill=0;endArrow=classic;endFill=1;" parent="USkfGyFfCSIdRW2pAjEp-1" source="USkfGyFfCSIdRW2pAjEp-2" target="USkfGyFfCSIdRW2pAjEp-5" edge="1">
                    <mxGeometry relative="1" as="geometry"/>
                </mxCell>
                <mxCell id="USkfGyFfCSIdRW2pAjEp-2" value="Order&lt;br&gt;InProgress" style="ellipse;whiteSpace=wrap;html=1;aspect=fixed;" parent="USkfGyFfCSIdRW2pAjEp-1" vertex="1">
                    <mxGeometry x="200" y="210" width="80" height="80" as="geometry"/>
                </mxCell>
                <mxCell id="USkfGyFfCSIdRW2pAjEp-13" style="html=1;entryX=0.5;entryY=0;entryDx=0;entryDy=0;startArrow=none;startFill=0;endArrow=classic;endFill=1;" parent="USkfGyFfCSIdRW2pAjEp-1" source="USkfGyFfCSIdRW2pAjEp-3" target="USkfGyFfCSIdRW2pAjEp-2" edge="1">
                    <mxGeometry relative="1" as="geometry"/>
                </mxCell>
                <mxCell id="USkfGyFfCSIdRW2pAjEp-3" value="Order&lt;br&gt;Created" style="ellipse;whiteSpace=wrap;html=1;aspect=fixed;" parent="USkfGyFfCSIdRW2pAjEp-1" vertex="1">
                    <mxGeometry x="190" y="90" width="80" height="80" as="geometry"/>
                </mxCell>
                <mxCell id="USkfGyFfCSIdRW2pAjEp-4" value="Order&lt;br&gt;Complete" style="ellipse;whiteSpace=wrap;html=1;aspect=fixed;" parent="USkfGyFfCSIdRW2pAjEp-1" vertex="1">
                    <mxGeometry x="130" y="340" width="80" height="80" as="geometry"/>
                </mxCell>
                <mxCell id="USkfGyFfCSIdRW2pAjEp-5" value="Order&lt;br&gt;Cancelled" style="ellipse;whiteSpace=wrap;html=1;aspect=fixed;" parent="USkfGyFfCSIdRW2pAjEp-1" vertex="1">
                    <mxGeometry x="270" y="380" width="80" height="80" as="geometry"/>
                </mxCell>
                <mxCell id="USkfGyFfCSIdRW2pAjEp-16" style="edgeStyle=none;html=1;startArrow=none;startFill=0;endArrow=classic;endFill=1;" parent="USkfGyFfCSIdRW2pAjEp-1" source="USkfGyFfCSIdRW2pAjEp-6" target="USkfGyFfCSIdRW2pAjEp-8" edge="1">
                    <mxGeometry relative="1" as="geometry"/>
                </mxCell>
                <mxCell id="USkfGyFfCSIdRW2pAjEp-17" style="edgeStyle=none;html=1;entryX=0;entryY=0;entryDx=0;entryDy=0;startArrow=none;startFill=0;endArrow=classic;endFill=1;" parent="USkfGyFfCSIdRW2pAjEp-1" source="USkfGyFfCSIdRW2pAjEp-6" target="USkfGyFfCSIdRW2pAjEp-9" edge="1">
                    <mxGeometry relative="1" as="geometry"/>
                </mxCell>
                <mxCell id="USkfGyFfCSIdRW2pAjEp-6" value="Payment&lt;br&gt;Created" style="ellipse;whiteSpace=wrap;html=1;aspect=fixed;" parent="USkfGyFfCSIdRW2pAjEp-1" vertex="1">
                    <mxGeometry x="500" y="160" width="80" height="80" as="geometry"/>
                </mxCell>
                <mxCell id="USkfGyFfCSIdRW2pAjEp-18" style="edgeStyle=none;html=1;entryX=0.5;entryY=0;entryDx=0;entryDy=0;startArrow=none;startFill=0;endArrow=classic;endFill=1;" parent="USkfGyFfCSIdRW2pAjEp-1" source="USkfGyFfCSIdRW2pAjEp-7" target="USkfGyFfCSIdRW2pAjEp-12" edge="1">
                    <mxGeometry relative="1" as="geometry"/>
                </mxCell>
                <mxCell id="USkfGyFfCSIdRW2pAjEp-19" style="edgeStyle=none;html=1;entryX=0.5;entryY=0;entryDx=0;entryDy=0;startArrow=none;startFill=0;endArrow=classic;endFill=1;" parent="USkfGyFfCSIdRW2pAjEp-1" source="USkfGyFfCSIdRW2pAjEp-7" target="USkfGyFfCSIdRW2pAjEp-11" edge="1">
                    <mxGeometry relative="1" as="geometry"/>
                </mxCell>
                <mxCell id="USkfGyFfCSIdRW2pAjEp-7" value="Fulfilment&lt;br&gt;Created" style="ellipse;whiteSpace=wrap;html=1;aspect=fixed;" parent="USkfGyFfCSIdRW2pAjEp-1" vertex="1">
                    <mxGeometry x="830" y="140" width="80" height="80" as="geometry"/>
                </mxCell>
                <mxCell id="USkfGyFfCSIdRW2pAjEp-8" value="Payment&lt;br&gt;Succesful" style="ellipse;whiteSpace=wrap;html=1;aspect=fixed;" parent="USkfGyFfCSIdRW2pAjEp-1" vertex="1">
                    <mxGeometry x="440" y="280" width="80" height="80" as="geometry"/>
                </mxCell>
                <mxCell id="USkfGyFfCSIdRW2pAjEp-9" value="Payment&lt;br&gt;Failed" style="ellipse;whiteSpace=wrap;html=1;aspect=fixed;" parent="USkfGyFfCSIdRW2pAjEp-1" vertex="1">
                    <mxGeometry x="600" y="290" width="80" height="80" as="geometry"/>
                </mxCell>
                <mxCell id="USkfGyFfCSIdRW2pAjEp-11" value="Fulfilment&lt;br&gt;Failed" style="ellipse;whiteSpace=wrap;html=1;aspect=fixed;" parent="USkfGyFfCSIdRW2pAjEp-1" vertex="1">
                    <mxGeometry x="900" y="300" width="80" height="80" as="geometry"/>
                </mxCell>
                <mxCell id="USkfGyFfCSIdRW2pAjEp-12" value="Fulfilment&lt;br&gt;Complete" style="ellipse;whiteSpace=wrap;html=1;aspect=fixed;" parent="USkfGyFfCSIdRW2pAjEp-1" vertex="1">
                    <mxGeometry x="760" y="270" width="80" height="80" as="geometry"/>
                </mxCell>
                <mxCell id="USkfGyFfCSIdRW2pAjEp-22" value="&lt;span style=&quot;text-align: left&quot;&gt;Acts on:&lt;/span&gt;&lt;br style=&quot;text-align: left&quot;&gt;&lt;ul style=&quot;text-align: left&quot;&gt;&lt;li&gt;Order Created&lt;/li&gt;&lt;li&gt;Fulfilment Failed&lt;/li&gt;&lt;li&gt;Events from Stripe&lt;/li&gt;&lt;/ul&gt;" style="rounded=0;whiteSpace=wrap;html=1;fillColor=none;align=left;verticalAlign=bottom;" parent="USkfGyFfCSIdRW2pAjEp-1" vertex="1">
                    <mxGeometry x="410" y="50" width="290" height="560" as="geometry"/>
                </mxCell>
                <mxCell id="USkfGyFfCSIdRW2pAjEp-23" value="&lt;span style=&quot;color: rgb(0 , 0 , 0) ; font-family: &amp;#34;helvetica&amp;#34; ; font-size: 12px ; font-style: normal ; font-weight: 400 ; letter-spacing: normal ; text-align: left ; text-indent: 0px ; text-transform: none ; word-spacing: 0px ; background-color: rgb(248 , 249 , 250)&quot;&gt;Acts on:&lt;/span&gt;&lt;br style=&quot;color: rgb(0 , 0 , 0) ; font-family: &amp;#34;helvetica&amp;#34; ; font-size: 12px ; font-style: normal ; font-weight: 400 ; letter-spacing: normal ; text-align: left ; text-indent: 0px ; text-transform: none ; word-spacing: 0px ; background-color: rgb(248 , 249 , 250)&quot;&gt;&lt;ul style=&quot;color: rgb(0 , 0 , 0) ; font-family: &amp;#34;helvetica&amp;#34; ; font-size: 12px ; font-style: normal ; font-weight: 400 ; letter-spacing: normal ; text-align: left ; text-indent: 0px ; text-transform: none ; word-spacing: 0px ; background-color: rgb(248 , 249 , 250)&quot;&gt;&lt;li style=&quot;padding: 3px 0px&quot;&gt;Payment Succesful&lt;/li&gt;&lt;li style=&quot;padding: 3px 0px&quot;&gt;Order Cancelled&lt;/li&gt;&lt;/ul&gt;" style="rounded=0;whiteSpace=wrap;html=1;fillColor=none;align=left;verticalAlign=bottom;" parent="USkfGyFfCSIdRW2pAjEp-1" vertex="1">
                    <mxGeometry x="720" y="50" width="290" height="560" as="geometry"/>
                </mxCell>
            </root>
        </mxGraphModel>
    </diagram>
</mxfile>